# xmcd
#
# Track frame offsets:
#	150
#	14325
#	26625
#	40492
#	66333
#	84633
#	105040
#	131938
#	160852
#	193073
#	212991
#
# Disc length: 3267 seconds
#
# Revision: 1
# Processed by: cddbd v1.5.2PL0 Copyright (c) Steve Scherf et al.
# Submitted via: audiograbber 1.83.01
#
DISCID=990cc10b
DTITLE=The Get-Rites - Tin Roof Sky
DYEAR=2008
DGENRE=Country Rock
TTITLE0=Gypsy Russian Rose
TTITLE1=Broad Way
TTITLE2=Psalm
TTITLE3=Salvation
TTITLE4=Come And Be Counted
TTITLE5=Life For The Dying
TTITLE6=Turn Around
TTITLE7=Devils Backyard
TTITLE8=God Is Not Dead
TTITLE9=Red Shoe Song
TTITLE10=Tin Roof Sky
EXTD=
EXTT0=
EXTT1=
EXTT2=
EXTT3=
EXTT4=
EXTT5=
EXTT6=
EXTT7=
EXTT8=
EXTT9=
EXTT10=
PLAYORDER=
